#!OML:ASF E:\inclinewalkrobotboard\Project 1\Capture day 1\Session 1\subject1.ASF
:FULLY-SPECIFIED
:DEGREES
318
root 9.10657 25.9829 -2.38208 -169.974 2.07808 -182.367
lowerback 7.47097 1.29775 -4.21837
upperback 5.34775 1.97553 2.72538
thorax 1.13896 1.04654 5.07728
lowerneck -8.74467 1.04404 -5.68137
upperneck 27.8293 -0.736173 4.10531
head 10.3072 -1.21305 2.22421
rclavicle 6.36111e-015 2.94201e-014
rhumerus -17.6815 -11.2019 -80.2356
rradius 31.9684
rwrist 7.16443
rhand -13.3234 -38.3562
rfingers 7.12502
rthumb 12.7815 -67.9449
lclavicle 6.36111e-015 2.94201e-014
lhumerus -33.252 11.7762 80.1772
lradius 21.7028
lwrist -25.1519
lhand -27.3359 -20.3771
lfingers 7.12502
lthumb -0.744496 9.60138
rfemur -19.1905 3.9256 22.234
rtibia 22.2687
rfoot -30.7239 -2.82617
rtoes -12.2936
lfemur -52.9887 -2.46742 -20.5361
ltibia 54.6681
lfoot -20.6313 5.45143
ltoes -66.0264
319
root 9.12127 25.9928 -2.49981 -170.226 2.27426 -182.37
lowerback 7.65944 1.44412 -4.28293
upperback 5.35837 2.16507 2.70876
thorax 1.02263 1.14521 5.07747
lowerneck -8.31305 1.02806 -5.93747
upperneck 27.593 -0.835555 4.48175
head 10.1408 -1.24669 2.38775
rclavicle -3.22031e-014 -5.56597e-014
rhumerus -16.8347 -9.57489 -80.8302
rradius 32.5914
rwrist 7.15285
rhand -13.7192 -38.5511
rfingers 7.12502
rthumb 12.3999 -68.1633
lclavicle -3.22031e-014 -5.56597e-014
lhumerus -33.6343 12.1534 79.6707
lradius 21.1382
lwrist -25.3392
lhand -27.7652 -21.1597
lfingers 7.12502
lthumb -1.15911 8.81694
rfemur -18.1589 3.99518 22.3113
rtibia 21.7272
rfoot -30.9999 -2.65983
rtoes -12.3751
lfemur -54.2638 -2.51827 -20.0864
ltibia 52.7992
lfoot -20.5408 4.60521
ltoes -65.9396
320
root 9.13363 26.0002 -2.61743 -170.55 2.48163 -182.372
lowerback 7.8343 1.57575 -4.31679
upperback 5.47646 2.35109 2.67174
thorax 1.02833 1.24318 5.04131
lowerneck -7.9441 0.984256 -6.45872
upperneck 27.2871 -0.992572 5.18817
head 9.96635 -1.29214 2.70811
rclavicle 8.74653e-015 6.36111e-015
rhumerus -15.7478 -8.16404 -81.4655
rradius 32.8762
rwrist 7.29579
rhand -13.9798 -37.8393
rfingers 7.12502
rthumb 12.1486 -67.4665
lclavicle 8.74653e-015 6.36111e-015
lhumerus -33.7019 12.3867 79.354
lradius 20.6964
lwrist -25.0214
lhand -27.348 -20.965
lfingers 7.12502
lthumb -0.7562 9.01337
rfemur -17.053 4.02782 22.3967
rtibia 21.2202
rfoot -31.2739 -2.6364
rtoes -13.0981
lfemur -55.2339 -2.55701 -19.6566
ltibia 51.1183
lfoot -20.053 3.97133
ltoes -65.664
321
root 9.13875 26.0055 -2.7499 -170.908 2.79915 -182.271
lowerback 7.91419 1.71677 -4.23992
upperback 5.64294 2.56519 2.65882
thorax 1.13631 1.35613 4.96935
lowerneck -8.07041 0.952705 -6.66992
upperneck 27.4614 -1.10014 5.48691
head 10.0615 -1.33795 2.84234
rclavicle 7.95139e-015 8.74653e-015
rhumerus -14.6614 -6.56896 -82.0961
rradius 33.082
rwrist 7.23116
rhand -13.8692 -38.2236
rfingers 7.12502
rthumb 12.2552 -67.8446
lclavicle 7.95139e-015 8.74653e-015
lhumerus -33.7931 12.8849 79.0421
lradius 20.4564
lwrist -24.787
lhand -26.0643 -19.6963
lfingers 7.12502
lthumb 0.483634 10.2829
rfemur -15.9023 3.99659 22.571
rtibia 20.8065
rfoot -31.426 -2.78857
rtoes -14.7814
lfemur -55.906 -2.55388 -19.1429
ltibia 49.675
lfoot -19.8317 3.81157
ltoes -65.1604
322
root 9.1349 26.0079 -2.89741 -171.202 3.25327 -182.001
lowerback 7.77334 1.94793 -4.16765
upperback 5.81991 2.90652 2.80136
thorax 1.3556 1.52723 5.06226
lowerneck -8.27889 0.861839 -6.89477
upperneck 27.7218 -1.27995 5.72463
head 10.2112 -1.42684 2.95141
rclavicle 1.59028e-015 2.14687e-014
rhumerus -13.9176 -5.01837 -82.5135
rradius 33.5433
rwrist 6.94269
rhand -13.4785 -39.0931
rfingers 7.12502
rthumb 12.6319 -68.6911
lclavicle 1.59028e-015 2.14687e-014
lhumerus -33.8143 13.765 78.7806
lradius 19.815
lwrist -25.5361
lhand -25.4224 -19.1067
lfingers 7.12502
lthumb 1.10365 10.8702
rfemur -14.7572 4.15964 22.8759
rtibia 20.3368
rfoot -31.7054 -2.71672
rtoes -16.1783
lfemur -56.4729 -2.539 -18.4231
ltibia 48.6643
lfoot -19.365 3.56353
ltoes -64.6733
323
root 9.13265 26.0064 -3.03046 -171.387 3.44617 -181.991
lowerback 7.89275 2.00479 -4.10997
upperback 5.79076 2.9773 2.7119
thorax 1.25719 1.56728 4.92426
lowerneck -7.94004 0.871803 -7.36105
upperneck 27.6129 -1.43932 6.48763
head 10.1173 -1.48013 3.2852
rclavicle 1.86858e-014 5.56597e-015
rhumerus -13.4881 -3.62603 -83.2462
rradius 34.0556
rwrist 6.71543
rhand -13.3369 -38.5978
rfingers 7.12502
rthumb 12.7684 -68.1874
lclavicle 1.86858e-014 5.56597e-015
lhumerus -34.0736 14.4362 78.1717
lradius 19.0595
lwrist -26.6835
lhand -25.268 -19.6891
lfingers 7.12502
lthumb 1.2527 10.287
rfemur -13.7694 4.3451 22.8973
rtibia 19.856
rfoot -32.1546 -2.73872
rtoes -17.0106
lfemur -57.1531 -2.7781 -18.029
ltibia 48.2292
lfoot -18.5543 3.52871
ltoes -64.276
324
root 9.12951 26.0047 -3.17012 -171.583 3.74707 -182.093
lowerback 7.95535 2.10165 -4.20947
upperback 5.80745 3.09671 2.59446
thorax 1.22833 1.62597 4.84601
lowerneck -7.64485 0.860611 -7.64923
upperneck 27.4511 -1.57604 7.01658
head 10.0123 -1.52443 3.50609
rclavicle 2.38542e-015 7.15625e-015
rhumerus -12.9882 -2.32998 -83.9544
rradius 34.4156
rwrist 6.37409
rhand -13.6356 -37.7157
rfingers 7.12502
rthumb 12.4804 -67.323
lclavicle 2.38542e-015 7.15625e-015
lhumerus -34.5952 14.9856 77.501
lradius 18.1538
lwrist -29.4353
lhand -27.4848 -22.2489
lfingers 7.12502
lthumb -0.88837 7.72904
rfemur -12.7672 4.49846 22.7969
rtibia 19.4194
rfoot -32.3774 -2.48734
rtoes -16.4962
lfemur -57.5128 -2.92928 -17.8241
ltibia 47.8146
lfoot -17.4987 3.34582
ltoes -63.545
325
root 9.11985 26.0023 -3.33005 -171.665 4.31009 -181.906
lowerback 7.77064 2.15557 -4.02714
upperback 5.79181 3.17405 2.52156
thorax 1.31546 1.66412 4.66797
lowerneck -7.65082 0.999771 -7.69276
upperneck 27.6952 -1.46387 7.12439
head 10.0914 -1.48675 3.56722
rclavicle 1.43125e-014 1.74931e-014
rhumerus -12.6484 -0.766236 -84.7653
rradius 34.7186
rwrist 5.80519
rhand -13.7724 -36.9795
rfingers 7.12502
rthumb 12.3486 -66.5948
lclavicle 1.43125e-014 1.74931e-014
lhumerus -35.2091 15.7936 76.7811
lradius 17.7234
lwrist -30.9698
lhand -28.1451 -22.7668
lfingers 7.12502
lthumb -1.52603 7.20752
rfemur -11.8295 4.66627 22.9547
rtibia 18.9625
rfoot -32.4873 -1.94683
rtoes -16.1865
lfemur -57.6601 -2.82491 -17.3869
ltibia 47.8593
lfoot -17.22 3.88713
ltoes -63.5362
326
root 9.11494 26.0044 -3.47491 -171.804 4.66262 -181.757
lowerback 7.81258 2.27021 -4.03391
upperback 5.8074 3.32609 2.50333
thorax 1.29262 1.7412 4.63949
lowerneck -7.91944 0.994899 -7.46321
upperneck 27.9882 -1.50974 7.01265
head 10.2548 -1.50431 3.48836
rclavicle 3.97569e-015 3.65764e-014
rhumerus -12.3748 0.279843 -85.4103
rradius 35.1211
rwrist 5.14441
rhand -13.7852 -36.0603
rfingers 7.12502
rthumb 12.3362 -65.6763
lclavicle 3.97569e-015 3.65764e-014
lhumerus -35.4954 16.0039 76.5442
lradius 17.7061
lwrist -30.985
lhand -27.4524 -22.2371
lfingers 7.12502
lthumb -0.85704 7.74097
rfemur -10.835 4.74607 23.1127
rtibia 18.4323
rfoot -32.6578 -1.67343
rtoes -16.6446
lfemur -57.6216 -2.8257 -17.001
ltibia 47.9733
lfoot -15.3687 3.72568
ltoes -62.8022
327
root 9.10471 26.0063 -3.63213 -171.862 5.32988 -181.694
lowerback 7.5632 2.47648 -4.14165
upperback 5.91777 3.60744 2.45289
thorax 1.51242 1.87321 4.64249
lowerneck -7.96356 0.939193 -7.71027
upperneck 27.7944 -1.55298 7.24213
head 10.1973 -1.50983 3.60775
rclavicle 1.19271e-015 2.14687e-014
rhumerus -11.9344 1.08425 -86.0117
rradius 35.3793
rwrist 4.66753
rhand -14.0789 -35.359
rfingers 7.12502
rthumb 12.0531 -64.9919
lclavicle 1.19271e-015 2.14687e-014
lhumerus -35.6709 15.5918 76.827
lradius 18.0752
lwrist -29.7771
lhand -26.429 -21.3863
lfingers 7.12502
lthumb 0.131381 8.59339
rfemur -9.90028 4.90914 23.0806
rtibia 17.8537
rfoot -32.7081 -1.0318
rtoes -15.7261
lfemur -57.374 -2.64751 -16.734
ltibia 48.1898
lfoot -13.4532 3.44756
ltoes -63.0591
328
root 9.09644 26.0074 -3.78652 -171.738 5.83342 -181.624
lowerback 7.22353 2.55239 -4.24547
upperback 5.9839 3.71146 2.3865
thorax 1.75622 1.91321 4.64465
lowerneck -8.06764 0.93714 -7.92386
upperneck 27.9422 -1.63359 7.54887
head 10.2797 -1.54556 3.7508
rclavicle 5.56597e-015 2.70347e-014
rhumerus -11.4199 1.88384 -86.7403
rradius 35.3802
rwrist 4.40566
rhand -14.2921 -35.1653
rfingers 7.12502
rthumb 11.8475 -64.8102
lclavicle 5.56597e-015 2.70347e-014
lhumerus -35.6359 15.8267 76.8196
lradius 17.9312
lwrist -29.3167
lhand -26.2188 -20.7332
lfingers 7.12502
lthumb 0.334468 9.24625
rfemur -9.12719 4.97527 23.0686
rtibia 17.2522
rfoot -32.7555 -0.502652
rtoes -15.0185
lfemur -57.1957 -2.54262 -16.5781
ltibia 48.6277
lfoot -11.6657 3.14517
ltoes -63.3106
329
root 9.08274 26.0088 -3.95145 -171.458 6.42618 -181.448
lowerback 6.79049 2.65014 -4.1677
upperback 5.92904 3.83709 2.23595
thorax 1.93676 1.96661 4.45661
lowerneck -8.28664 0.941121 -7.90104
upperneck 28.1489 -1.68624 7.65586
head 10.4037 -1.56311 3.78521
rclavicle 2.38542e-014 7.95139e-016
rhumerus -11.1706 2.44119 -87.5533
rradius 35.3456
rwrist 4.47846
rhand -14.0687 -35.2807
rfingers 7.12502
rthumb 12.0629 -64.913
lclavicle 2.38542e-014 7.95139e-016
lhumerus -35.6609 16.5629 76.2739
lradius 17.3949
lwrist -30.1879
lhand -26.4369 -20.8644
lfingers 7.12502
lthumb 0.123757 9.11533
rfemur -8.50451 5.0228 23.1254
rtibia 16.701
rfoot -32.8577 -0.000837546
rtoes -15.2665
lfemur -56.8903 -2.29732 -16.4078
ltibia 49.0011
lfoot -12.0714 2.94048
ltoes -61.4622
330
root 9.06962 26.0145 -4.11288 -171.178 6.93589 -181.282
lowerback 6.52586 2.74078 -4.17117
upperback 5.82969 3.94262 2.10619
thorax 1.97543 2.01177 4.32737
lowerneck -8.59328 0.950037 -7.6645
upperneck 28.2887 -1.64624 7.46539
head 10.5119 -1.53552 3.68364
rclavicle -4.05521e-014 1.11319e-014
rhumerus -11.0671 2.90106 -88.2372
rradius 35.3341
rwrist 4.61914
rhand -13.8609 -35.3221
rfingers 7.12502
rthumb 12.2632 -64.9426
lclavicle -4.05521e-014 1.11319e-014
lhumerus -35.8412 17.0772 75.8058
lradius 17.2743
lwrist -30.844
lhand -26.145 -20.9465
lfingers 7.12502
lthumb 0.405693 9.03285
rfemur -7.93728 5.18331 23.1732
rtibia 16.2163
rfoot -32.9352 0.285615
rtoes -15.7175
lfemur -56.4282 -2.13019 -16.2534
ltibia 49.3247
lfoot -14.0291 3.15964
ltoes -61.4071
331
root 9.05715 26.022 -4.27154 -170.975 7.42396 -181.307
lowerback 6.3903 2.80597 -4.4973
upperback 5.74806 4.0014 1.99852
thorax 1.94772 2.02699 4.39898
lowerneck -9.02536 1.02273 -7.63386
upperneck 28.4369 -1.5007 7.45537
head 10.6399 -1.45557 3.69809
rclavicle -3.89618e-014 2.06736e-014
rhumerus -11.0415 3.28142 -88.794
rradius 35.2634
rwrist 4.63657
rhand -13.7467 -35.2918
rfingers 7.12502
rthumb 12.3733 -64.9056
lclavicle -3.89618e-014 2.06736e-014
lhumerus -36.0728 17.19 75.6869
lradius 17.5403
lwrist -30.6518
lhand -25.3921 -20.5078
lfingers 7.12502
lthumb 1.13283 9.46892
rfemur -7.39491 5.49418 23.0167
rtibia 15.8533
rfoot -32.9505 0.4109
rtoes -16.4285
lfemur -55.7605 -2.20329 -16.2292
ltibia 49.3952
lfoot -16.0554 3.45143
ltoes -61.6049
